<svg width="22" height="21" viewBox="0 0 22 21" fill="none" xmlns="http://www.w3.org/2000/svg">
    <path
        d="M16.8508 11.1566C16.8792 14.3346 19.5304 15.3922 19.5598 15.4056C19.5374 15.4802 19.1362 16.9128 18.163 18.3925C17.3217 19.6717 16.4486 20.9463 15.0732 20.9727C13.7217 20.9986 13.2871 20.1389 11.742 20.1389C10.1973 20.1389 9.71451 20.9463 8.43518 20.9986C7.10755 21.0509 6.09657 19.6153 5.24832 18.3407C3.51502 15.7335 2.19042 10.9733 3.96903 7.76014C4.8526 6.16446 6.43161 5.15402 8.14548 5.12811C9.44918 5.10223 10.6797 6.04065 11.4767 6.04065C12.2731 6.04065 13.7685 4.91212 15.3405 5.07786C15.9986 5.10636 17.8459 5.35444 19.0321 7.16093C18.9365 7.22257 16.8279 8.49974 16.8508 11.1566V11.1566ZM14.3109 3.35296C15.0157 2.46528 15.4901 1.22955 15.3607 0C14.3447 0.0424842 13.1162 0.704394 12.3874 1.59159C11.7343 2.37724 11.1624 3.63472 11.3167 4.83994C12.4491 4.93109 13.606 4.24121 14.3109 3.35297"
        fill="white" />
</svg>
