<svg width="18" height="18" viewBox="0 0 18 18" fill="none" xmlns="http://www.w3.org/2000/svg">
    <path
        d="M12.6594 6.17074H3.35107L7.41774 2.10407C7.74274 1.77907 7.74274 1.24574 7.41774 0.92074C7.26205 0.764696 7.05067 0.677002 6.83024 0.677002C6.60981 0.677002 6.39843 0.764696 6.24274 0.92074L0.751074 6.41241C0.426074 6.73741 0.426074 7.26241 0.751074 7.58741L6.24274 13.0791C6.56774 13.4041 7.09274 13.4041 7.41774 13.0791C7.74274 12.7541 7.74274 12.2291 7.41774 11.9041L3.35107 7.83741H12.6594C13.1177 7.83741 13.4927 7.46241 13.4927 7.00407C13.4927 6.54574 13.1177 6.17074 12.6594 6.17074Z"
        fill="#080E2F" />
</svg>