<svg width="14" height="14" viewBox="0 0 14 14" fill="none" xmlns="http://www.w3.org/2000/svg">
    <path
        fill-rule="evenodd"
        clip-rule="evenodd"
        d="M2.62484 5.54167C2.304 5.54167 2.0415 5.27917 2.0415 4.95833V3.79167H0.874837C0.554004 3.79167 0.291504 3.52917 0.291504 3.20833C0.291504 2.8875 0.554004 2.625 0.874837 2.625H2.0415V1.45833C2.0415 1.1375 2.304 0.875 2.62484 0.875C2.94567 0.875 3.20817 1.1375 3.20817 1.45833V2.625H4.37484C4.69567 2.625 4.95817 2.8875 4.95817 3.20833C4.95817 3.52917 4.69567 3.79167 4.37484 3.79167H3.20817V4.95833C3.20817 5.27917 2.94567 5.54167 2.62484 5.54167ZM6.35929 7.58333C6.6719 7.04188 7.24962 6.70833 7.87484 6.70833C8.50005 6.70833 9.07777 7.04188 9.39038 7.58333C9.70299 8.12478 9.70299 8.79188 9.39038 9.33333C9.07777 9.87478 8.50005 10.2083 7.87484 10.2083C7.24962 10.2083 6.6719 9.87478 6.35929 9.33333C6.04669 8.79188 6.04669 8.12478 6.35929 7.58333ZM12.5415 3.79167H10.6923L9.969 3.00417C9.75317 2.765 9.43817 2.625 9.1115 2.625H5.37817C5.47734 2.8 5.5415 2.9925 5.5415 3.20833C5.5415 3.85 5.0165 4.375 4.37484 4.375H3.7915V4.95833C3.7915 5.6 3.2665 6.125 2.62484 6.125C2.409 6.125 2.2165 6.06083 2.0415 5.96167V11.9583C2.0415 12.6 2.5665 13.125 3.20817 13.125H12.5415C13.1832 13.125 13.7082 12.6 13.7082 11.9583V4.95833C13.7082 4.31667 13.1832 3.79167 12.5415 3.79167ZM4.95817 8.45833C4.95817 10.0683 6.26484 11.375 7.87484 11.375C9.48484 11.375 10.7915 10.0683 10.7915 8.45833C10.7915 6.84833 9.48484 5.54167 7.87484 5.54167C6.26484 5.54167 4.95817 6.84833 4.95817 8.45833Z"
        fill="#F9F9F9"
        fill-opacity="0.9"
    />
</svg>