<svg width="16" height="16" viewBox="0 0 13 13" fill="none" xmlns="http://www.w3.org/2000/svg">
    <path
        d="M12.0125 0.99612C11.849 0.832274 11.6271 0.740195 11.3956 0.740195C11.1642 0.740195 10.9422 0.832274 10.7788 0.99612L6.50001 5.26612L2.22126 0.98737C2.05778 0.823524 1.83583 0.731445 1.60438 0.731445C1.37293 0.731445 1.15098 0.823524 0.987505 0.98737C0.646255 1.32862 0.646255 1.87987 0.987505 2.22112L5.26626 6.49987L0.987505 10.7786C0.646255 11.1199 0.646255 11.6711 0.987505 12.0124C1.32875 12.3536 1.88001 12.3536 2.22126 12.0124L6.50001 7.73362L10.7788 12.0124C11.12 12.3536 11.6713 12.3536 12.0125 12.0124C12.3538 11.6711 12.3538 11.1199 12.0125 10.7786L7.73376 6.49987L12.0125 2.22112C12.345 1.88862 12.345 1.32862 12.0125 0.99612Z"
        fill="#080E2F" />
</svg>