<svg width="21" height="21" viewBox="0 0 21 21" fill="none" xmlns="http://www.w3.org/2000/svg">
<path fill-rule="evenodd" clip-rule="evenodd" d="M17.5 3.5H3.5C2.5375 3.5 1.75875 4.2875 1.75875 5.25L1.75 15.75C1.75 16.7125 2.5375 17.5 3.5 17.5H17.5C18.4625 17.5 19.25 16.7125 19.25 15.75V5.25C19.25 4.2875 18.4625 3.5 17.5 3.5ZM17.5 14.875C17.5 15.3562 17.1062 15.75 16.625 15.75H4.375C3.89375 15.75 3.5 15.3562 3.5 14.875V7L9.5725 10.7975C10.1412 11.1562 10.8588 11.1562 11.4275 10.7975L17.5 7V14.875ZM3.5 5.25L10.5 9.625L17.5 5.25H3.5Z" fill="#1B1B1B" fill-opacity="0.6"/>
</svg>
