<svg width="22" height="21" viewBox="0 0 22 21" fill="none" xmlns="http://www.w3.org/2000/svg">
<path d="M20.3411 3.09286e-10H1.65106C1.34506 0.00207934 1.0523 0.125099 0.836656 0.342217C0.621013 0.559335 0.499993 0.852928 0.5 1.15894V19.8489C0.502079 20.1549 0.625099 20.4477 0.842217 20.6633C1.05933 20.879 1.35293 21 1.65894 21H11.7179V12.8796H8.98794V9.69938H11.7179V7.36312C11.7179 4.6515 13.3756 3.16312 15.7946 3.16312C16.6109 3.15966 17.4268 3.20173 18.2384 3.28912V6.132H16.5584C15.2459 6.132 14.9926 6.762 14.9926 7.6755V9.69938H18.14L17.72 12.8796H14.99V21H20.3411C20.6484 21 20.9432 20.8779 21.1606 20.6606C21.3779 20.4432 21.5 20.1484 21.5 19.8411V1.15106C21.4979 0.84506 21.3749 0.552299 21.1578 0.336656C20.9407 0.121013 20.6471 -7.06435e-06 20.3411 3.09286e-10Z" fill="white"/>
</svg>
