<svg width="26" height="26" viewBox="0 0 26 26" fill="none" xmlns="http://www.w3.org/2000/svg">
<path fill-rule="evenodd" clip-rule="evenodd" d="M13.0004 5.70604C14.9071 3.47437 18.4387 2.56437 21.2987 4.51437C22.8154 5.55437 23.7687 7.30937 23.8337 9.15104C23.9746 13.3544 20.2587 16.7235 14.5712 21.8802L14.4521 21.9885C13.6287 22.7469 12.3612 22.7469 11.5379 21.9994L11.4296 21.9019L11.3641 21.8424C5.7135 16.7085 2.01598 13.3491 2.16706 9.16187C2.23206 7.30937 3.18539 5.55437 4.70206 4.51437C7.56206 2.55354 11.0937 3.47437 13.0004 5.70604ZM13.0004 20.396L13.1087 20.2877C18.2654 15.6185 21.6671 12.531 21.6671 9.4002C21.6671 7.23354 20.0421 5.60854 17.8754 5.60854C16.2071 5.60854 14.5821 6.68104 14.0187 8.1652H11.9929C11.4187 6.68104 9.79373 5.60854 8.12539 5.60854C5.95873 5.60854 4.33373 7.23354 4.33373 9.4002C4.33373 12.531 7.73539 15.6185 12.8921 20.2877L13.0004 20.396Z" fill="#1B1B1B" fill-opacity="0.6"/>
</svg>
