<svg width="16" height="16" viewBox="0 0 16 16" fill="none" xmlns="http://www.w3.org/2000/svg">
<path fill-rule="evenodd" clip-rule="evenodd" d="M9.87241 5.91634L13.0991 6.19634C13.6857 6.24301 13.9191 6.97634 13.4724 7.36301L11.0257 9.48301L11.7591 12.6363C11.8924 13.2097 11.2724 13.663 10.7657 13.3563L7.99907 11.683L5.23241 13.3497C4.72574 13.6563 4.10574 13.203 4.23907 12.6297L4.97241 9.48301L2.52574 7.36301C2.07907 6.97634 2.31907 6.24301 2.90574 6.19634L6.12574 5.92301L7.38574 2.94968C7.61241 2.40968 8.38574 2.40968 8.61241 2.94968L9.87241 5.91634ZM7.99907 4.23634V10.4363L10.5124 11.9563L9.84574 9.10301L12.0591 7.18301L9.13907 6.92968L7.99907 4.23634Z" fill="#FFD130"/>
</svg>
