<svg width="21" height="21" viewBox="0 0 21 21" fill="none" xmlns="http://www.w3.org/2000/svg">
<path fill-rule="evenodd" clip-rule="evenodd" d="M15.75 7.4375H14.875V5.6875C14.875 3.2725 12.915 1.3125 10.5 1.3125C8.085 1.3125 6.125 3.2725 6.125 5.6875V7.4375H5.25C4.2875 7.4375 3.5 8.225 3.5 9.1875V17.9375C3.5 18.9 4.2875 19.6875 5.25 19.6875H15.75C16.7125 19.6875 17.5 18.9 17.5 17.9375V9.1875C17.5 8.225 16.7125 7.4375 15.75 7.4375ZM10.5 15.3125C9.5375 15.3125 8.75 14.525 8.75 13.5625C8.75 12.6 9.5375 11.8125 10.5 11.8125C11.4625 11.8125 12.25 12.6 12.25 13.5625C12.25 14.525 11.4625 15.3125 10.5 15.3125ZM7.875 5.6875V7.4375H13.125V5.6875C13.125 4.235 11.9525 3.0625 10.5 3.0625C9.0475 3.0625 7.875 4.235 7.875 5.6875Z" fill="#1B1B1B" fill-opacity="0.6"/>
</svg>
