<svg width="21" height="21" viewBox="0 0 21 21" fill="none" xmlns="http://www.w3.org/2000/svg">
<path fill-rule="evenodd" clip-rule="evenodd" d="M13.2883 12.6626H13.9796L17.6896 16.3901C18.0483 16.7488 18.0483 17.3351 17.6896 17.6938C17.3308 18.0526 16.7446 18.0526 16.3858 17.6938L12.6671 13.9751V13.2838L12.4308 13.0388C11.2058 14.0888 9.53455 14.6313 7.7583 14.3338C5.3258 13.9226 3.3833 11.8926 3.0858 9.4426C2.6308 5.74135 5.7458 2.62635 9.44705 3.08135C11.8971 3.37885 13.9271 5.32135 14.3383 7.75385C14.6358 9.5301 14.0933 11.2013 13.0433 12.4263L13.2883 12.6626ZM4.79205 8.7251C4.79205 10.9038 6.5508 12.6626 8.72955 12.6626C10.9083 12.6626 12.6671 10.9038 12.6671 8.7251C12.6671 6.54635 10.9083 4.7876 8.72955 4.7876C6.5508 4.7876 4.79205 6.54635 4.79205 8.7251Z" fill="white"/>
</svg>
