<svg width="24" height="24" viewBox="0 0 24 24" fill="none" xmlns="http://www.w3.org/2000/svg">
<path fill-rule="evenodd" clip-rule="evenodd" d="M21 5.9001H13.41L16.35 2.9601C16.55 2.7601 16.55 2.4501 16.35 2.2501C16.15 2.0501 15.84 2.0501 15.64 2.2501L12 5.8901L8.36 2.2501C8.16 2.0501 7.85 2.0501 7.65 2.2501C7.45 2.4501 7.45 2.7601 7.65 2.9601L10.59 5.9001H3C1.9 5.9001 1 6.7901 1 7.9001V19.9001C1 21.0001 1.9 21.9001 3 21.9001H21C22.1 21.9001 23 21.0001 23 19.9001V7.9001C23 6.7901 22.1 5.9001 21 5.9001ZM10.5 17.0501L14.48 14.7701C15.15 14.3901 15.15 13.4201 14.48 13.0301L10.5 10.7501C9.83 10.3701 9 10.8601 9 11.6201V16.1701C9 16.9401 9.83 17.4301 10.5 17.0501ZM4 19.9001H20C20.55 19.9001 21 19.4501 21 18.9001V8.9001C21 8.3501 20.55 7.9001 20 7.9001H4C3.45 7.9001 3 8.3501 3 8.9001V18.9001C3 19.4501 3.45 19.9001 4 19.9001Z" fill="#1B1B1B" fill-opacity="0.6"/>
</svg>
